# xmcd CD database file
#
# Track frame offsets:
#	150
#	60957
#	95009
#	138353
#	154318
#
# Disc length: 2665 seconds
#
# Revision: 0
# Processed by: cddbd v1.5.1PL0 Copyright (c) Steve Scherf et al.
# Submitted via: CDex 1.51
#
DISCID=3b0a6705
DTITLE=Roy Hargrove and The RH Factor - 36. Internationale Jazzwoche Burghausen 2005 (2|2)
DYEAR=2005
DGENRE=Jazz
TTITLE0=Roy Hargrove and The RH Factor - I'll Stay
TTITLE1=Roy Hargrove and The RH Factor - Hold On
TTITLE2=Roy Hargrove and The RH Factor - Drum+
TTITLE3=Roy Hargrove and The RH Factor - Riff
TTITLE4=Roy Hargrove and The RH Factor - Universe
EXTD=YEAR: 2005
EXTT0=
EXTT1=
EXTT2=
EXTT3=
EXTT4=
PLAYORDER=
